<svg xmlns="http://www.w3.org/2000/svg" version="1.1" xmlns:xlink="http://www.w3.org/1999/xlink" xmlns:svgjs="http://svgjs.dev/svgjs" width="2000" height="1252" viewBox="0 0 2000 1252"><g transform="matrix(1,0,0,1,-1.2121212121212466,239.5339177256434)"><svg viewBox="0 0 396 248" data-background-color="#ffffff" preserveAspectRatio="xMidYMid meet" height="1252" width="2000" xmlns="http://www.w3.org/2000/svg" xmlns:xlink="http://www.w3.org/1999/xlink"><g id="tight-bounds" transform="matrix(1,0,0,1,0.2400000000000091,0.4000000000000057)"><svg viewBox="0 0 395.52 247.2" height="247.2" width="395.52"><g><svg></svg></g><g><svg viewBox="0 0 395.52 247.2" height="247.2" width="395.52"><g transform="matrix(1,0,0,1,75.54432000000001,72.92520585365854)"><svg viewBox="0 0 244.43135999999996 101.34958829268291" height="101.34958829268291" width="244.43135999999996"><g><svg viewBox="0 0 244.43135999999996 101.34958829268291" height="101.34958829268291" width="244.43135999999996"><g><svg viewBox="0 0 244.43135999999996 101.34958829268291" height="101.34958829268291" width="244.43135999999996"><g><svg viewBox="0 0 244.43135999999996 101.34958829268291" height="101.34958829268291" width="244.43135999999996"><g id="textblocktransform"><svg viewBox="0 0 244.43135999999996 101.34958829268291" height="101.34958829268291" width="244.43135999999996" id="textblock"><g><svg viewBox="0 0 244.43135999999996 101.34958829268291" height="101.34958829268291" width="244.43135999999996"><g transform="matrix(1,0,0,1,0,0)"><svg width="244.43135999999996" viewBox="-2.1 -33.5 94.3 39.1" height="101.34958829268291" data-palette-color="#0eff04"><path d="M28.6-13.5L28.6-13.5Q26.1-13.5 23.95-13.9L23.95-13.9Q24.65-11.7 26.9-3.95L26.9-3.95Q27.6-1.7 29.1 0.6L29.1 0.6Q31.15 3.55 32.9 3.55L32.9 3.55Q35 3.55 36.4-0.7L36.4-0.7Q36.65-1.7 36.93-1.7 37.2-1.7 37.33-1.13 37.45-0.55 37.45-0.35L37.45-0.35Q37.45 0.9 36.05 2.85L36.05 2.85Q34.2 5.6 32 5.6 29.8 5.6 27.95 3.4 26.1 1.2 24.33-4.63 22.55-10.45 22.55-12.05L22.55-12.05Q22.55-12.3 22.6-12.45L22.6-12.45Q16.6-4.5 14-1.95L14-1.95Q8.2 3.7 2.15 3.7L2.15 3.7Q-2.1 3.7-2.1 0.5L-2.1 0.5Q-2.1-1.1-1.1-3.03-0.1-4.95 1.35-6.4 2.8-7.85 3.9-7.85L3.9-7.85Q4.1-7.85 4.1-7.75L4.1-7.75Q4.1-7.5 2.85-6.5 1.6-5.5 0.45-3.68-0.7-1.85-0.7-0.35L-0.7-0.35Q-0.7 2.3 2.85 2.3L2.85 2.3Q9.5 2.3 21.15-13.3L21.15-13.3Q21.8-14.15 22.25-14.5L22.25-14.5 21.45-14.8Q20.8-14.55 20.4-14.55L20.4-14.55Q19.35-14.55 19.35-15.4L19.35-15.4Q19.35-16.55 20.9-16.9L20.9-16.9Q21.1-16.95 21.25-16.95L21.25-16.95Q22.15-16.95 23.35-16.05L23.35-16.05Q27.75-20.95 27.85-21.05L27.85-21.05Q31.5-24.8 32.77-24.8 34.05-24.8 34.05-23.7L34.05-23.7Q34.05-23.2 33.83-22.75 33.6-22.3 33.3-22.3L33.3-22.3Q33-22.2 33-22.6L33-22.6Q33-22.8 33.3-23.2L33.3-23.2Q33.35-23.9 32.85-23.9L32.85-23.9Q31.25-23.9 25.1-15.4L25.1-15.4Q26.6-15.3 27.6-15.3L27.6-15.3Q39.2-15.3 42.1-21.3L42.1-21.3Q42.7-22.6 42.7-23.7L42.7-23.7Q42.7-25.9 40.7-27.5L40.7-27.5Q37.5-30.1 30.3-30.1 23.1-30.1 15.6-26.45L15.6-26.45Q6.5-22 6.5-16L6.5-16Q6.5-14.05 8.95-14.05 11.4-14.05 14.15-15.85 16.9-17.65 17.85-19.4L17.85-19.4Q18.2-20.05 18.53-20.05 18.85-20.05 18.7-19.65L18.7-19.65Q17.75-16.85 14.48-14.88 11.2-12.9 7.65-12.9 4.1-12.9 4.1-15.15L4.1-15.15Q4.1-15.3 4.1-15.5L4.1-15.5Q4.85-22.05 12.13-26.63 19.4-31.2 29.65-31.2L29.65-31.2Q39.2-31.2 43.2-27.9L43.2-27.9Q45.6-25.9 45.6-23.2L45.6-23.2Q45.6-22.05 45.05-20.7L45.05-20.7Q43.5-17.05 38.7-15.28 33.9-13.5 28.6-13.5ZM86-9.45L86-9.45Q86-7.65 85.2-6.05L85.2-6.05Q83.5-2.45 78.7-0.05 73.9 2.35 68.7 2.35L68.7 2.35Q60.8 2.35 57.95-3.05L57.95-3.05Q52.8 1.25 50.6 1.25L50.6 1.25Q50.2 1.25 49.9 1.1L49.9 1.1Q48.4 0.3 48.4-2.35 48.4-5 50.6-8.85 52.8-12.7 54.45-13.4L54.45-13.4Q55.2-13.65 55.6-13.65L55.6-13.65Q57.05-13.65 57.8-11.25L57.8-11.25 59.3-6.45Q60.75-8 63.25-11.4L63.25-11.4 67.7-17.4Q75.9-28.05 78.45-29.05L78.45-29.05Q79.34-29.4 80.3-29.4 81.25-29.4 81.87-29 82.5-28.6 82.5-28L82.5-28Q82.5-27.1 81.05-26.95L81.05-26.95Q79.55-26.1 75.32-21.98 71.09-17.85 70.3-16.75L70.3-16.75Q64.7-8.95 59.95-4.75L59.95-4.75Q63 1.3 69.09 1.3L69.09 1.3Q72.8 1.3 76.45-1.03 80.09-3.35 81.9-6.75L81.9-6.75Q82.7-8.2 82.7-10 82.7-11.8 81.27-13.43 79.84-15.05 77.7-15.8L77.7-15.8Q76.7-15.95 74.5-16.23 72.3-16.5 72.3-17.15L72.3-17.15Q72.3-17.4 72.5-17.6L72.5-17.6Q73.09-18.3 74.05-18.3L74.05-18.3Q74.59-18.3 75.12-18.1 75.65-17.9 75.95-17.8 76.25-17.7 76.65-17.55L76.65-17.55Q77.75-17.45 78.55-17.45L78.55-17.45Q81.84-17.45 84.55-18.5L84.55-18.5Q88-19.85 88.95-22.55L88.95-22.55Q89.55-24.3 89.55-25.7L89.55-25.7Q89.55-29.15 86.2-30.85L86.2-30.85Q83.3-32.35 78.25-32.35L78.25-32.35Q70.3-32.35 64-29.35L64-29.35Q60.8-27.85 57.92-24.9 55.05-21.95 55.05-19.85L55.05-19.85Q55.05-18.4 55.8-17.45L55.8-17.45Q56.1-17.05 56.85-16.45L56.85-16.45Q57.1-16.3 56.55-16.3L56.55-16.3Q53.45-17 53.45-20.45 53.45-23.9 56.95-26.95L56.95-26.95Q59.55-29.2 62.8-30.6L62.8-30.6Q69.55-33.5 78.15-33.5L78.15-33.5Q84.3-33.5 87.95-31.7L87.95-31.7Q92.2-29.7 92.2-25.65L92.2-25.65Q92.2-24.05 91.55-22.4L91.55-22.4Q90.5-19.4 86.09-17.85L86.09-17.85Q82.8-16.7 79-16.65L79-16.65Q81.95-16.5 83.97-14.48 86-12.45 86-9.45ZM54.05-11.3L54.05-11.3Q54-11.3 53.8-11.2L53.8-11.2Q50.1-5.85 50.1-2.6L50.1-2.6Q50.1-1.25 50.75-0.15L50.75-0.15Q50.9 0.1 51.25 0.1L51.25 0.1Q52.85 0.1 57.4-4.45L57.4-4.45 57.25-4.65Q55.25-11.3 54.05-11.3Z" opacity="1" transform="matrix(1,0,0,1,0,0)" fill="#0eff04" class="wordmark-text-0" data-fill-palette-color="primary" id="text-0"></path></svg></g></svg></g></svg></g></svg></g><g></g></svg></g></svg></g></svg></g><g><path d="M100.954 48.999A122.216 122.216 0 0 1 294.566 48.999L285.426 48.999A113.076 113.076 0 0 0 110.094 48.999L100.954 48.999M100.954 198.201A122.216 122.216 0 0 0 294.566 198.201L285.426 198.201A113.076 113.076 0 0 1 110.094 198.201L100.954 198.201" fill="#0eff04" stroke="transparent" data-fill-palette-color="tertiary"></path></g></svg></g><defs></defs></svg><rect width="395.52" height="247.2" fill="none" stroke="none" visibility="hidden"></rect></g></svg></g></svg>